<svg width="97" height="22" viewBox="0 0 97 22" fill="none" xmlns="http://www.w3.org/2000/svg">
<path fill-rule="evenodd" clip-rule="evenodd" d="M23.4503 21.9945V0.178223H27.8033V21.9945H23.4503ZM48.1683 17.6488V21.9945H34.3919C33.1277 21.9945 32.0988 20.9618 32.0988 19.6929C32.0988 19.2241 32.2387 18.7725 32.5025 18.3876L42.0109 4.52337H32.5082V0.178223H45.9244C47.1886 0.178223 48.217 1.2104 48.217 2.4793C48.217 2.94804 48.0766 3.40014 47.8112 3.78617L38.2831 17.6488H48.1683ZM66.7648 13.8671V0.178223H71.1183V19.658C71.1183 20.9462 70.0738 21.9945 68.7904 21.9945C68.0777 21.9945 67.4137 21.6729 66.97 21.1132L56.822 8.32433V21.9945H52.4679V2.51467C52.4679 1.22653 53.5124 0.178223 54.7958 0.178223C55.5085 0.178223 56.173 0.499738 56.6172 1.06005L66.7648 13.8671ZM87.5377 1.7395L96.7999 21.9945H92.0042L90.076 17.7357H80.1545L78.2496 21.9945H73.4254L82.6876 1.7395C83.1215 0.7916 84.0731 0.178223 85.1129 0.178223C86.1522 0.178223 87.1039 0.79108 87.5377 1.7395ZM15.0164 14.1605L20.5724 21.9939H15.2387L10.5068 15.316H5.26122V21.9939H0.908203V2.85492C0.908203 1.37688 2.10194 0.178223 3.57506 0.178223H10.667C15.8384 0.178223 18.5447 3.97398 18.5447 7.72343C18.5447 10.4371 17.2354 12.8094 15.0164 14.1605ZM82.104 13.4384H88.1214L85.1129 6.76513L82.104 13.4384ZM10.6188 11.0192C13.2742 11.0192 14.216 9.2561 14.216 7.74685C14.216 6.2376 13.2742 4.4755 10.6188 4.4755H5.26122V11.0192H10.6188Z" fill="black"/>
</svg>
